# xmcd CD database file
#
# Track frame offsets:
#	150
#	4527
#	6420
#	8636
#	11733
#	13755
#	15778
#	17818
#	20900
#	23462
#	26065
#	28760
#	31415
#	33315
#	34777
#	35592
#	37639
#	40764
#	42230
#	46538
#	50902
#	57559
#	64227
#	69042
#	73885
#	77050
#	80235
#	84150
#	88046
#	91682
#
# Disc length: 1270 seconds
#
# Revision: 0
# Processed by: cddbd v1.5.2PL0 Copyright (c) Steve Scherf et al.
# Submitted via: CDex 1.51
#
DISCID=6404f41e
DTITLE=Jim Ferguson - All Blues Scale For Jazz Guitar
DYEAR=2000
DGENRE=Jazz
TTITLE0=C Blues Scale
TTITLE1=Long Blues Scale Fingering 1
TTITLE2=Long Blues Scale Fingering 2
TTITLE3=Eighth Note - Sixteenth Note Pattern 1
TTITLE4=Eighth Note - Sixteenth Note Pattern 2
TTITLE5=Eighth Note - Sixteenth Note Pattern 3
TTITLE6=Eighth Note - Sixteenth Note Pattern 4
TTITLE7=Eighth Note - Sixteenth Note Pattern 5
TTITLE8=Triplet Pattern 1
TTITLE9=Triplet Pattern 2
TTITLE10=Triplet Pattern 3
TTITLE11=Triplet Pattern 4
TTITLE12=Hammer-On - Pull-Off Pattern 1
TTITLE13=Hammer-On - Pull-Off Pattern 2
TTITLE14=Hammer-On - Pull-Off Pattern 3
TTITLE15=Adapting Patterns To The Blues Scale 1
TTITLE16=Adapting Patterns To The Blues Scale 2
TTITLE17=Summary
TTITLE18=Twelve For KB - Comping Groove
TTITLE19=Twelve For KB - Solo
TTITLE20=The Bear's Back - Comping Groove
TTITLE21=The Bear's Back - Solo
TTITLE22=Mayall Your Blues - Comping Groove
TTITLE23=Mayall Your Blues - Solo
TTITLE24=Minor Finer - Comping Groove
TTITLE25=Minor Finer - Solo
TTITLE26=Wes Was Best - Comping Groove
TTITLE27=Wes Was Best - Solo
TTITLE28=Positive Changes - Comping Groove
TTITLE29=Positive Changes - Solo
EXTD=YEAR: 2000
EXTT0=
EXTT1=
EXTT2=
EXTT3=
EXTT4=
EXTT5=
EXTT6=
EXTT7=
EXTT8=
EXTT9=
EXTT10=
EXTT11=
EXTT12=
EXTT13=
EXTT14=
EXTT15=
EXTT16=
EXTT17=
EXTT18=
EXTT19=
EXTT20=
EXTT21=
EXTT22=
EXTT23=
EXTT24=
EXTT25=
EXTT26=
EXTT27=
EXTT28=
EXTT29=
PLAYORDER=
